<svg id="visual" viewBox="0 0 900 600" width="900" height="600" xmlns="http://www.w3.org/2000/svg" xmlns:xlink="http://www.w3.org/1999/xlink" version="1.1"><rect x="0" y="0" width="900" height="600" fill="#001ddd"></rect><defs><linearGradient id="grad1_0" x1="33.3%" y1="0%" x2="100%" y2="100%"><stop offset="20%" stop-color="#001ddd" stop-opacity="1"></stop><stop offset="80%" stop-color="#001ddd" stop-opacity="1"></stop></linearGradient></defs><defs><linearGradient id="grad2_0" x1="0%" y1="0%" x2="66.7%" y2="100%"><stop offset="20%" stop-color="#001ddd" stop-opacity="1"></stop><stop offset="80%" stop-color="#001ddd" stop-opacity="1"></stop></linearGradient></defs><g transform="translate(900, 0)"><path d="M0 513.8C-33.2 489.1 -66.3 464.3 -105.3 461.1C-144.2 457.9 -188.9 476.3 -222.9 462.9C-257 449.5 -280.3 404.4 -285.6 358.1C-290.8 311.7 -278 264.1 -304.1 242.5C-330.3 221 -395.4 225.4 -429.8 207C-464.2 188.5 -467.9 147.1 -476.7 108.8C-485.6 70.5 -499.7 35.2 -513.8 0L0 0Z" fill="#0b29eb"></path></g><g transform="translate(0, 600)"><path d="M0 -513.8C47.5 -527.7 95 -541.7 113.7 -498.2C132.4 -454.7 122.2 -353.7 166.2 -345.1C210.1 -336.4 308.2 -420.2 320.3 -401.7C332.5 -383.2 258.8 -262.6 279.9 -223.2C301 -183.8 416.9 -225.7 445.1 -214.3C473.2 -203 413.6 -138.3 410.4 -93.7C407.3 -49.1 460.5 -24.5 513.8 0L0 0Z" fill="#0b29eb"></path></g></svg>