<svg id="visual" viewBox="0 0 900 600" width="900" height="600" xmlns="http://www.w3.org/2000/svg" xmlns:xlink="http://www.w3.org/1999/xlink" version="1.1"><rect x="0" y="0" width="900" height="600" fill="#ffee01"></rect><path d="M571 600L582.2 585.7C593.3 571.3 615.7 542.7 646 514.2C676.3 485.7 714.7 457.3 708.3 428.8C702 400.3 651 371.7 636.2 343C621.3 314.3 642.7 285.7 666.2 257C689.7 228.3 715.3 199.7 704.2 171.2C693 142.7 645 114.3 636 85.8C627 57.3 657 28.7 672 14.3L687 0L900 0L900 14.3C900 28.7 900 57.3 900 85.8C900 114.3 900 142.7 900 171.2C900 199.7 900 228.3 900 257C900 285.7 900 314.3 900 343C900 371.7 900 400.3 900 428.8C900 457.3 900 485.7 900 514.2C900 542.7 900 571.3 900 585.7L900 600Z" fill="#001ddd" stroke-linecap="round" stroke-linejoin="miter"></path></svg>